<svg width="186" height="80" viewBox="0 0 186 80" fill="none" xmlns="http://www.w3.org/2000/svg">
<rect width="24.2564" height="48.0723" rx="12.1282" transform="matrix(0.999914 0.0130896 0.37881 0.925474 8.84419 1.04738)" fill="#1E1B1B"/>
<rect width="57.5385" height="18.2169" rx="9.10843" transform="matrix(0.999914 0.0130896 0.37881 0.925474 20.1537 28.6778)" fill="#1E1B1B"/>
<path d="M48.4731 51.2627C48.1163 50.391 48.465 49.646 49.3103 49.4741L59.6213 47.3765C60.7652 47.1438 62.301 48.0378 62.7838 49.2174L66.8381 59.1225C67.2566 60.1448 66.7004 60.9617 65.5959 60.9473L54.3661 60.8003C53.2616 60.7858 52.0271 59.9454 51.6087 58.9232L48.4731 51.2627Z" fill="#1E1B1B"/>
<rect width="73.3333" height="13.6627" rx="6.83133" transform="matrix(0.999914 0.0130896 0.37881 0.925474 25.3027 61.8172)" fill="#1E1B1B"/>
<path d="M137.709 23.9284C136.179 20.1904 133.136 16.5477 129.097 13.6208C125.058 10.6939 120.274 8.66403 115.56 7.87699C110.846 7.08994 106.493 7.59444 103.244 9.30453C99.9947 11.0146 98.0496 13.8245 97.7403 17.2553C97.4309 20.6862 98.7764 24.5258 101.547 28.1199C104.318 31.714 108.344 34.8403 112.937 36.966C117.53 39.0917 122.408 40.0853 126.738 39.7776C131.069 39.4698 134.584 37.8798 136.686 35.2783L118.25 23.6736L137.709 23.9284Z" fill="#1E1B1B"/>
<rect width="17.4872" height="45.0361" rx="8.74359" transform="matrix(0.999914 0.0130896 0.37881 0.925474 136.501 1.7869)" fill="#1E1B1B"/>
<ellipse cx="19.4615" cy="17.4578" rx="19.4615" ry="17.4578" transform="matrix(0.999914 0.0130896 0.37881 0.925474 127.456 46.8514)" fill="#1E1B1B"/>
</svg>
